<svg width="26" height="26" viewBox="0 0 26 26" fill="none" xmlns="http://www.w3.org/2000/svg">
<path fill-rule="evenodd" clip-rule="evenodd" d="M22.3845 5.49448C23.4165 5.76976 24.2293 6.58386 24.5059 7.61584C25.0082 9.48671 25.0069 13.3928 25.0069 13.3928C25.0069 13.3928 25.0069 17.2977 24.5059 19.1698C24.2306 20.2018 23.4165 21.0146 22.3845 21.2912C20.5124 21.7922 13.008 21.7922 13.008 21.7922C13.008 21.7922 5.50364 21.7922 3.63147 21.2912C2.59818 21.0159 1.78538 20.2031 1.5088 19.1698C1.00781 17.2977 1.00781 13.3928 1.00781 13.3928C1.00781 13.3928 1.00781 9.48671 1.5088 7.61584C1.78538 6.58256 2.59818 5.76976 3.63147 5.49448C5.50234 4.99219 13.008 4.99219 13.008 4.99219C13.008 4.99219 20.5124 4.99219 22.3845 5.49448ZM16.8435 13.4057L10.6073 17.0052V9.80484L16.8435 13.4057Z" fill="#F5F6F7"/>
</svg>
