<svg width="26" height="26" viewBox="0 0 26 26" fill="none" xmlns="http://www.w3.org/2000/svg">
<path d="M13.08 3.82788C16.094 3.82788 16.4491 3.83748 17.6393 3.89507C18.7384 3.94306 19.3383 4.13024 19.7366 4.28382C20.2646 4.49019 20.6389 4.73495 21.0373 5.1285C21.4308 5.52204 21.6756 5.90119 21.8819 6.42431C22.0355 6.82266 22.2227 7.41777 22.2707 8.52162C22.3235 9.71185 22.3379 10.067 22.3379 13.081C22.3379 16.0949 22.3283 16.4501 22.2707 17.6403C22.2179 18.7394 22.0355 19.3393 21.8819 19.7376C21.6756 20.2656 21.4308 20.6399 21.0373 21.0334C20.6437 21.427 20.2646 21.6718 19.7366 21.8781C19.3383 22.0317 18.7432 22.2141 17.6393 22.2669C16.4491 22.3197 16.094 22.3341 13.08 22.3341C10.066 22.3341 9.71087 22.3245 8.52064 22.2669C7.42159 22.2189 6.82168 22.0317 6.42334 21.8781C5.89541 21.6718 5.52106 21.427 5.12752 21.0334C4.73398 20.6399 4.48921 20.2608 4.28284 19.7376C4.12926 19.3393 3.94209 18.7442 3.89409 17.6403C3.8413 16.4501 3.8269 16.0949 3.8269 13.081C3.8269 10.067 3.8365 9.71185 3.89409 8.52162C3.94209 7.42257 4.12926 6.82266 4.28284 6.42431C4.48921 5.89639 4.73398 5.52204 5.12752 5.1285C5.52106 4.73495 5.90021 4.49019 6.42334 4.28382C6.82168 4.13024 7.4168 3.94306 8.52064 3.89507C9.71087 3.83748 10.066 3.82788 13.08 3.82788ZM13.08 1.79297C10.0132 1.79297 9.62928 1.80737 8.42465 1.86016C7.22482 1.91775 6.40414 2.10492 5.68424 2.38329C4.94035 2.67124 4.31164 3.05519 3.68292 3.6839C3.05901 4.31741 2.67507 4.94612 2.38711 5.68522C2.10875 6.40512 1.91677 7.2258 1.86398 8.42563C1.80639 9.63026 1.79199 10.0142 1.79199 13.081C1.79199 16.1477 1.80639 16.5317 1.85918 17.7363C1.91198 18.9361 2.10395 19.7568 2.38231 20.4767C2.67027 21.2206 3.05421 21.8493 3.68292 22.478C4.31164 23.1067 4.94035 23.4907 5.68424 23.7787C6.40414 24.057 7.22002 24.249 8.42465 24.3018C9.62928 24.3546 10.0132 24.369 13.08 24.369C16.1468 24.369 16.5307 24.3546 17.7353 24.3018C18.9352 24.249 19.7558 24.057 20.4757 23.7787C21.2196 23.4907 21.8484 23.1019 22.4771 22.478C23.1058 21.8493 23.4897 21.2206 23.7777 20.4767C24.056 19.7568 24.248 18.9361 24.3008 17.7363C24.3584 16.5317 24.368 16.1477 24.368 13.081C24.368 10.0142 24.3536 9.63026 24.3008 8.42563C24.248 7.2258 24.056 6.40512 23.7777 5.68522C23.4897 4.94132 23.101 4.31261 22.4771 3.6839C21.8484 3.05519 21.2196 2.67124 20.4757 2.38329C19.7558 2.10492 18.9352 1.91295 17.7353 1.86016C16.5307 1.80737 16.1468 1.79297 13.08 1.79297Z" fill="#F5F6F7"/>
<path d="M13.0837 7.28516C9.88257 7.28516 7.28613 9.88159 7.28613 13.0827C7.28613 16.2839 9.88257 18.8803 13.0837 18.8803C16.2849 18.8803 18.8813 16.2839 18.8813 13.0827C18.8813 9.88159 16.2849 7.28516 13.0837 7.28516ZM13.0837 16.8454C11.0056 16.8454 9.32104 15.1608 9.32104 13.0827C9.32104 11.0046 11.0056 9.32007 13.0837 9.32007C15.1618 9.32007 16.8464 11.0046 16.8464 13.0827C16.8464 15.1608 15.1618 16.8454 13.0837 16.8454Z" fill="#F5F6F7"/>
<path d="M20.4676 7.04872C20.4676 7.79741 19.8628 8.40213 19.1142 8.40213C18.3655 8.40213 17.7607 7.79741 17.7607 7.04872C17.7607 6.30003 18.3655 5.69531 19.1142 5.69531C19.858 5.69531 20.4676 6.30483 20.4676 7.04872Z" fill="#F5F6F7"/>
</svg>
