<svg width="26" height="26" viewBox="0 0 26 26" fill="none" xmlns="http://www.w3.org/2000/svg">
<path d="M5 6.03226C5.17917 6.02314 5.33595 6.00945 5.49272 6.00945C6.95521 6.00717 8.41769 6.01857 9.87794 6.00032C10.2116 5.99576 10.4132 6.10071 10.5991 6.38364C12.1669 8.74742 13.7503 11.1021 15.3292 13.4567C15.3942 13.5548 15.4703 13.6461 15.6249 13.8492C15.6405 13.5822 15.6562 13.4316 15.6562 13.281C15.6585 11.0268 15.6697 8.77252 15.6473 6.51825C15.645 6.09387 15.7749 5.99348 16.1713 6.00032C17.6338 6.02314 19.0941 6.01629 20.5566 6.0026C20.8835 6.00032 21 6.10071 21 6.44296C20.991 11.1568 20.9933 15.8707 21 20.5846C21 20.904 20.8992 21.0044 20.5812 20.9999C19.0381 20.9839 17.4972 20.9884 15.9541 20.9976C15.7144 20.9999 15.5689 20.9291 15.4278 20.7261C13.8578 18.4627 12.2788 16.2038 10.7021 13.9473C10.6103 13.8172 10.514 13.6895 10.3371 13.5777C10.3371 16.035 10.3371 18.4923 10.3371 20.9702C8.52744 20.9702 6.77604 20.9702 5 20.9702C5 16.0031 5 11.0496 5 6.03226Z" fill="#F5F6F7"/>
</svg>
